<svg xmlns="http://www.w3.org/2000/svg" version="1.1" xmlns:xlink="http://www.w3.org/1999/xlink" xmlns:svgjs="http://svgjs.dev/svgjs" width="1440" height="560" preserveAspectRatio="none" viewBox="0 0 1440 560"><g mask="url(&quot;#SvgjsMask1070&quot;)" fill="none"><rect width="1440" height="560" x="0" y="0" fill="url(&quot;#SvgjsLinearGradient1071&quot;)"></rect><path d="M0 0L43.26 0L0 200.67z" fill="rgba(255, 255, 255, .1)"></path><path d="M0 200.67L43.26 0L607.72 0L0 254.13z" fill="rgba(255, 255, 255, .075)"></path><path d="M0 254.13L607.72 0L845.13 0L0 273.52z" fill="rgba(255, 255, 255, .05)"></path><path d="M0 273.52L845.13 0L1011.7 0L0 363.21999999999997z" fill="rgba(255, 255, 255, .025)"></path><path d="M1440 560L1118.77 560L1440 413.44z" fill="rgba(0, 0, 0, .1)"></path><path d="M1440 413.44L1118.77 560L979.78 560L1440 273.36z" fill="rgba(0, 0, 0, .075)"></path><path d="M1440 273.36L979.78 560L540.91 560L1440 152.33z" fill="rgba(0, 0, 0, .05)"></path><path d="M1440 152.33000000000004L540.91 560L319.14 560L1440 115.82000000000005z" fill="rgba(0, 0, 0, .025)"></path></g><defs><mask id="SvgjsMask1070"><rect width="1440" height="560" fill="#ffffff"></rect></mask><linearGradient x1="15.28%" y1="-39.29%" x2="84.72%" y2="139.29%" gradientUnits="userSpaceOnUse" id="SvgjsLinearGradient1071"><stop stop-color="#0e2a47" offset="0"></stop><stop stop-color="rgba(37, 99, 235, 1)" offset="1"></stop></linearGradient></defs></svg>